<svg width="237" height="148" viewBox="0 0 237 148" fill="none" xmlns="http://www.w3.org/2000/svg">
<path d="M0.959473 134.153C0.599121 132.511 0.418945 130.75 0.418945 128.868C0.418945 127.306 0.539062 125.665 0.779297 123.943C1.78027 117.617 4.48291 110.67 8.88721 103.103C13.2515 95.4951 17.936 89.4692 22.9409 85.0249C23.1812 84.8247 23.6216 84.4443 24.2622 83.8838C24.9028 83.3232 25.5635 82.7227 26.2441 82.082C26.9648 81.4814 27.6655 80.8809 28.3462 80.2803C29.0669 79.6797 29.6074 79.2393 29.9678 78.959C31.4092 77.8379 33.1309 76.5967 35.1328 75.2354C37.1348 73.874 38.7163 72.873 39.8774 72.2324C40.5181 71.8721 41.2188 71.4917 41.9795 71.0913C42.7402 70.6509 43.3608 70.2705 43.8413 69.9502C44.3618 69.6299 44.8823 69.3296 45.4028 69.0493C45.9233 68.729 46.3438 68.5088 46.6641 68.3887C47.0244 68.2285 47.5049 68.0083 48.1055 67.728C48.7461 67.4077 49.3667 67.1074 49.9673 66.8271C50.6079 66.5068 51.1284 66.2466 51.5288 66.0464C51.9692 65.8062 52.1895 65.666 52.1895 65.626C52.1494 65.626 51.8491 65.646 51.2886 65.686C50.728 65.7261 50.0273 65.7861 49.1865 65.8662C46.5039 66.1465 44.0615 66.3867 41.8594 66.5869C39.6572 66.7471 37.335 66.8672 34.8926 66.9473C32.9307 67.0273 31.269 67.0674 29.9077 67.0674C28.8667 67.0674 28.0059 67.0474 27.3252 67.0073C25.7637 66.9272 24.3823 66.627 23.1812 66.1064C22.3804 65.7861 21.5996 65.3257 20.8389 64.7251C20.1182 64.1245 19.5376 63.5039 19.0972 62.8633C18.6167 61.9824 18.2163 60.8213 17.896 59.3799C17.5757 57.9385 17.4155 56.4971 17.4155 55.0557C17.4556 54.4551 17.5156 53.9546 17.5957 53.5542C17.6758 53.1138 17.856 52.4531 18.1362 51.5723C19.0972 48.8096 20.1382 46.3872 21.2593 44.3052C22.3804 42.1831 23.9419 39.7808 25.9438 37.0981C27.2251 35.2964 28.6265 33.5547 30.1479 31.873C31.7095 30.1914 33.8115 28.0894 36.4541 25.5669C38.416 23.645 39.9375 22.2036 41.0186 21.2427C42.1396 20.2417 43.4209 19.1807 44.8623 18.0596C45.8633 17.2988 46.8042 16.5781 47.6851 15.8975C48.5659 15.1768 49.1665 14.6763 49.4868 14.396C51.4487 12.8345 53.5908 11.2729 55.9131 9.71143C58.2754 8.1499 60.2974 6.94873 61.979 6.10791C64.061 5.06689 66.3633 4.08594 68.8857 3.16504C71.4082 2.2041 73.5103 1.52344 75.1919 1.12305C76.2729 0.882812 77.1938 0.742676 77.9546 0.702637C78.7153 0.662598 79.2759 0.642578 79.6362 0.642578C80.1968 0.642578 80.6973 0.682617 81.1377 0.762695C84.8213 1.60352 86.6631 3.90576 86.6631 7.66943C86.6631 9.03076 86.4229 10.5522 85.9424 12.2339C85.7021 13.1147 85.3418 14.1558 84.8613 15.3569C84.4209 16.5581 83.7202 18.3599 82.7593 20.7622C81.6782 23.2847 80.8774 25.2266 80.3569 26.5879C79.8364 27.9492 79.416 29.1504 79.0957 30.1914C78.8154 31.1123 78.5352 32.1333 78.2549 33.2544C77.9746 34.3354 77.7944 35.2363 77.7144 35.957C77.6343 36.1973 77.5942 36.3975 77.5942 36.5576C77.5942 36.7178 77.6143 36.8579 77.6543 36.978C77.6943 37.0981 77.7744 37.2583 77.8945 37.4585C78.0547 37.7788 78.1348 38.0791 78.1348 38.3594C78.1348 38.9199 77.8345 39.4204 77.2339 39.8608C76.7134 40.2612 76.1328 40.4614 75.4922 40.4614C75.0918 40.4614 74.6514 40.3813 74.1709 40.2212C72.9297 39.7007 72.3091 38.5996 72.3091 36.918V36.6177C72.3091 35.4966 72.7495 33.855 73.6304 31.6929C74.5112 29.4907 76.0928 26.1875 78.375 21.7832C79.8164 18.9404 80.9175 16.7383 81.6782 15.1768C82.439 13.6152 82.9795 12.394 83.2998 11.5132C83.6201 10.6323 83.8403 9.81152 83.9604 9.05078C84.0806 8.61035 84.1406 8.12988 84.1406 7.60938C84.1406 7.36914 84.1206 7.12891 84.0806 6.88867C84.0405 6.12793 83.9204 5.50732 83.7202 5.02686C82.9995 3.50537 81.5181 2.74463 79.2759 2.74463C78.2749 2.74463 77.1338 2.88477 75.8525 3.16504C71.6885 4.12598 66.5635 6.52832 60.4775 10.3721C55.6729 13.4551 50.7881 17.2988 45.8232 21.9033C35.6533 31.5527 28.4863 40.2612 24.3223 48.0288C22.4004 51.7124 21.4395 54.7754 21.4395 57.2178V57.6382C21.4795 59.8804 22.2002 61.542 23.6016 62.623C24.082 63.0234 24.5825 63.3438 25.103 63.584C25.6636 63.7842 26.3442 63.9644 27.145 64.1245C27.8657 64.2847 28.5664 64.4048 29.2471 64.4849C29.9277 64.5249 30.6885 64.5449 31.5293 64.5449H32.9106C34.3921 64.5049 36.5142 64.4248 39.2769 64.3047C43.0806 64.1445 46.3638 63.9644 49.1265 63.7642C51.8892 63.5239 55.3525 63.1636 59.5166 62.6831H59.6968C60.3374 62.603 61.0381 62.543 61.7988 62.5029C62.5596 62.4229 63.1602 62.3828 63.6006 62.3828C64.0811 62.3828 64.5215 62.4028 64.9219 62.4429C65.7627 62.4829 66.2031 62.623 66.2432 62.8633L66.3032 63.1636C66.3032 63.5239 65.7227 64.0845 64.5615 64.8452C63.4004 65.5659 60.3174 67.0273 55.3125 69.2295C49.2266 71.8721 43.9414 74.6948 39.457 77.6978C27.9658 85.4253 18.9971 94.6343 12.5508 105.325C7.5459 114.213 5.04346 122.241 5.04346 129.408C5.04346 131.57 5.26367 133.632 5.7041 135.594C5.9043 136.355 6.14453 137.016 6.4248 137.576C6.66504 138.177 6.96533 138.797 7.32568 139.438C8.84717 142.081 11.0093 143.822 13.812 144.663C14.2124 144.783 14.5527 144.863 14.833 144.903C15.1133 144.983 15.4336 145.023 15.7939 145.023C16.1543 145.023 16.6348 145.023 17.2354 145.023H17.4155C21.0591 145.023 25.3633 143.742 30.3281 141.18C34.8525 138.897 40.7783 135.034 48.1055 129.588C61.3184 119.819 73.29 110.79 84.0205 102.502C99.4756 90.6104 108.424 84.104 110.867 82.9829C111.507 82.7026 112.128 82.4824 112.729 82.3223C113.369 82.1221 113.89 82.022 114.29 82.022C114.65 82.062 114.911 82.1621 115.071 82.3223C115.231 82.4424 115.311 82.6025 115.311 82.8027C115.311 82.8828 115.291 82.9629 115.251 83.043C115.211 83.1631 115.091 83.2832 114.891 83.4033C114.73 83.5234 114.43 83.6636 113.99 83.8237C112.749 84.2241 111.407 84.8447 109.966 85.6855C108.524 86.4863 106.522 87.7876 103.96 89.5894C101.438 91.3511 97.9141 93.8936 93.3896 97.2168C91.1875 98.8584 88.9053 100.56 86.543 102.322C84.1807 104.083 80.5571 106.826 75.6724 110.55C73.9507 111.871 72.3491 113.092 70.8677 114.213C69.4263 115.334 68.4653 116.075 67.9849 116.436C67.5044 116.756 67.084 117.076 66.7236 117.396C66.3633 117.677 66.123 117.877 66.0029 117.997C65.8828 118.117 65.6426 118.317 65.2822 118.598C64.9219 118.878 64.5215 119.198 64.0811 119.559C63.5605 119.919 62.5996 120.62 61.1982 121.661C59.8369 122.742 58.3354 123.903 56.6938 125.144C51.2886 129.228 47.2246 132.271 44.502 134.273C41.7793 136.275 39.417 137.917 37.415 139.198C29.3271 144.483 22.6406 147.186 17.3555 147.306C13.1514 147.306 9.58789 146.024 6.66504 143.462C3.70215 140.939 1.80029 137.836 0.959473 134.153ZM143.959 96.7964C143.479 96.0356 143.238 95.1147 143.238 94.0337V93.5532C143.238 93.2329 143.258 92.8926 143.298 92.5322C143.378 92.1318 143.499 91.5913 143.659 90.9106C143.819 90.23 144.039 89.3091 144.319 88.1479C144.439 87.7075 144.58 87.2471 144.74 86.7666C144.94 86.126 145.06 85.6655 145.1 85.3853C145.18 85.0649 145.22 84.8647 145.22 84.7847C145.22 84.5044 145.12 84.3442 144.92 84.3042H144.8C144.56 84.3042 144.079 84.5645 143.358 85.085C142.478 85.7256 141.597 86.5063 140.716 87.4272C139.835 88.3081 138.594 89.7095 136.992 91.6313C135.591 93.313 134.55 94.4941 133.869 95.1748C133.229 95.8154 132.668 96.2759 132.188 96.5562C131.587 96.8765 131.006 97.0366 130.446 97.0366C130.085 97.0366 129.745 96.9766 129.425 96.8564C128.544 96.5361 127.923 95.8755 127.563 94.8745C127.403 94.4341 127.323 93.8335 127.323 93.0728C127.323 90.7104 128.023 86.8667 129.425 81.5415C129.785 80.1802 130.045 78.979 130.206 77.938C130.246 77.6577 130.266 77.4175 130.266 77.2173C130.266 76.6968 130.105 76.4365 129.785 76.4365C129.705 76.4365 129.625 76.4565 129.545 76.4966C128.864 76.6968 127.963 77.2974 126.842 78.2983C125.761 79.2993 124.62 80.4604 123.419 81.7817C122.258 83.063 121.257 84.2041 120.416 85.2051C119.575 86.2061 119.075 86.8066 118.915 87.0068C116.712 89.8496 114.49 93.373 112.248 97.5771C111.808 98.418 111.427 99.1187 111.107 99.6792C110.787 100.2 110.566 100.5 110.446 100.58C110.326 100.74 110.206 100.86 110.086 100.94C109.926 100.98 109.726 101.021 109.485 101.061C109.205 101.101 109.005 101.121 108.885 101.121C108.765 101.081 108.625 101.041 108.464 101C107.543 100.64 107.083 99.7593 107.083 98.3579C107.083 97.6372 107.203 96.7764 107.443 95.7754C107.644 94.8145 108.044 93.3931 108.645 91.5112C109.245 89.6294 109.926 87.6675 110.687 85.6255C112.929 79.3794 114.55 76.0161 115.551 75.5356C115.792 75.4155 116.012 75.3555 116.212 75.3555C116.452 75.3154 116.652 75.2954 116.812 75.2954L117.173 75.3555C117.253 75.3955 117.353 75.4556 117.473 75.5356C117.593 75.6157 117.713 75.6958 117.833 75.7759C117.954 75.856 118.034 75.9561 118.074 76.0762C118.154 76.1963 118.214 76.3564 118.254 76.5566L118.314 76.7969L118.254 77.0371C118.254 77.1973 118.194 77.4375 118.074 77.7578C117.954 78.0781 117.753 78.5786 117.473 79.2593C116.953 80.4604 116.352 81.9619 115.671 83.7637C115.031 85.5254 114.47 87.1069 113.99 88.5083C113.629 89.6294 113.329 90.5903 113.089 91.3911C112.809 92.1919 112.668 92.6323 112.668 92.7124C112.708 92.6724 112.849 92.4922 113.089 92.1719C113.329 91.8115 113.629 91.3511 113.99 90.7905C114.991 89.3491 115.872 88.1279 116.632 87.127C117.393 86.0859 118.354 84.8848 119.515 83.5234C120.997 81.8018 122.458 80.1602 123.899 78.5986C125.381 77.0371 126.622 75.7959 127.623 74.875C128.944 73.7139 130.146 73.1333 131.227 73.1333C131.627 73.1333 132.027 73.2134 132.428 73.3735C133.709 73.9341 134.35 75.1152 134.35 76.917V77.0972C134.35 77.6577 134.27 78.3984 134.109 79.3193C133.949 80.2402 133.649 81.6016 133.208 83.4033C132.047 88.248 131.467 91.5312 131.467 93.2529C131.507 93.7334 131.667 93.9736 131.947 93.9736C132.107 93.9736 132.308 93.8936 132.548 93.7334C133.068 93.4531 133.549 93.1128 133.989 92.7124C134.39 92.3921 134.83 91.9717 135.311 91.4512C135.831 90.8906 136.632 89.9897 137.713 88.7485C139.555 86.6265 140.916 85.085 141.797 84.124C142.718 83.1631 143.438 82.5024 143.959 82.1421C144.68 81.6216 145.38 81.3613 146.061 81.3613C146.421 81.3613 146.782 81.4414 147.142 81.6016C148.143 82.042 148.744 82.9629 148.944 84.3643C148.984 84.6045 149.004 84.8447 149.004 85.085C149.004 85.4854 148.964 85.9458 148.884 86.4663C148.764 87.3472 148.523 88.5083 148.163 89.9497C147.763 91.5913 147.522 92.7725 147.442 93.4932C147.442 94.8145 148.023 95.4751 149.184 95.4751C149.544 95.4751 149.965 95.415 150.445 95.2949C152.407 94.6943 154.77 93.4932 157.532 91.6914C160.335 89.8496 162.938 87.9478 165.34 85.9858C167.782 83.9839 169.444 82.4624 170.325 81.4214C170.325 81.3813 170.345 81.3613 170.385 81.3613C170.545 81.1211 170.725 80.9009 170.925 80.7007C171.166 80.5005 171.446 80.4004 171.766 80.4004C171.926 80.4404 172.046 80.5205 172.126 80.6406C172.247 80.7607 172.307 80.9009 172.307 81.061C172.307 81.1812 172.267 81.3413 172.187 81.5415C172.066 81.9019 171.706 82.3823 171.105 82.9829C169.504 84.5845 167.062 86.6465 163.778 89.1689C160.535 91.6914 157.352 93.8135 154.229 95.5352C151.106 97.2568 148.604 98.1177 146.722 98.1177C146.361 98.1177 146.021 98.0977 145.701 98.0576C144.98 97.8975 144.399 97.4771 143.959 96.7964ZM175.25 57.1577V57.0977C175.25 56.9775 175.33 56.7573 175.49 56.437C175.69 55.9966 175.95 55.4961 176.271 54.9355C176.991 53.6543 177.432 52.6733 177.592 51.9927C177.712 51.4722 177.772 50.9717 177.772 50.4912C177.812 50.0107 177.832 49.6704 177.832 49.4702C177.832 49.0698 177.812 48.7695 177.772 48.5693C177.732 48.4492 177.692 48.3691 177.652 48.3291C177.652 48.2891 177.632 48.269 177.592 48.269L177.472 48.3291C177.392 48.3291 177.271 48.3691 177.111 48.4492C176.791 48.5693 176.471 48.6294 176.15 48.6294C175.75 48.6294 175.37 48.5293 175.009 48.3291C174.369 47.9287 173.988 47.3281 173.868 46.5273V46.2871C173.868 45.5664 174.188 44.8657 174.829 44.1851C175.55 43.5044 176.271 43.1641 176.991 43.1641C177.271 43.1641 177.532 43.2041 177.772 43.2842C178.773 43.6045 179.554 44.4653 180.114 45.8667C180.234 46.2271 180.314 46.5273 180.354 46.7676C180.435 47.0078 180.475 47.3081 180.475 47.6685C180.515 47.9888 180.535 48.4692 180.535 49.1099C180.535 49.7505 180.515 50.251 180.475 50.6113C180.475 50.9316 180.435 51.2319 180.354 51.5122C180.314 51.7925 180.214 52.1128 180.054 52.4731C179.253 54.7153 178.032 56.2168 176.391 56.9775C175.95 57.1777 175.65 57.2979 175.49 57.3379C175.37 57.3379 175.29 57.2778 175.25 57.1577ZM167.082 138.597C167.001 138.077 166.961 137.536 166.961 136.976C166.961 134.333 168.022 131.41 170.145 128.207C172.707 124.363 175.63 120.84 178.913 117.637C182.196 114.434 184.659 112.191 186.3 110.91C188.382 109.188 190.865 107.247 193.748 105.084C196.63 102.922 199.533 100.96 202.456 99.1987C203.257 98.7183 203.938 98.2979 204.498 97.9375C205.099 97.5771 205.419 97.3569 205.459 97.2769L209.363 95.1748C208.962 94.2939 208.462 93.5132 207.861 92.8325C207.421 92.3921 206.86 91.9517 206.18 91.5112C205.539 91.0708 204.918 90.7505 204.318 90.5503C203.917 90.3901 203.397 90.3101 202.756 90.3101C201.075 90.3101 198.512 90.7705 195.069 91.6914C193.587 92.0918 192.566 92.3521 192.006 92.4722C191.485 92.5923 191.085 92.6523 190.805 92.6523C190.604 92.6523 190.444 92.6323 190.324 92.5923C189.443 92.4321 188.843 91.9316 188.522 91.0908C188.402 90.8105 188.342 90.5703 188.342 90.3701C188.342 90.1699 188.382 89.9897 188.462 89.8296C188.623 89.5093 189.023 89.1489 189.664 88.7485C191.505 87.4673 193.768 85.4253 196.45 82.6226C199.173 79.7798 201.135 77.3774 202.336 75.4155C202.856 74.4546 203.117 73.7539 203.117 73.3135C203.117 72.9131 202.917 72.7129 202.516 72.7129C200.394 73.3135 198.552 74.2944 196.991 75.6558C195.429 77.0171 194.048 78.4185 192.847 79.8599C192.126 80.6606 191.425 81.3813 190.745 82.022C189.624 83.1831 188.883 84.0239 188.522 84.5444C188.242 84.9448 188.042 85.165 187.922 85.2051C187.682 85.2852 187.461 85.3252 187.261 85.3252C186.981 85.3252 186.701 85.2651 186.42 85.145C185.94 84.9448 185.56 84.6045 185.279 84.124C185.159 83.8838 185.099 83.6235 185.099 83.3433C185.099 83.103 185.159 82.8428 185.279 82.5625C185.56 81.9619 186.14 81.1611 187.021 80.1602L187.321 79.8599C188.322 78.8589 189.764 77.5176 191.646 75.8359C193.567 74.1143 195.409 72.7329 197.171 71.6919C198.973 70.6108 200.454 70.0703 201.615 70.0703C202.016 70.0703 202.396 70.1304 202.756 70.2505C204.198 70.9312 204.918 72.1123 204.918 73.7939V74.0942C204.878 74.6948 204.758 75.2554 204.558 75.7759C204.358 76.2964 203.978 76.957 203.417 77.7578C201.015 81.3613 198.372 84.4844 195.489 87.127C195.089 87.5273 194.789 87.8477 194.588 88.0879C194.388 88.2881 194.288 88.4282 194.288 88.5083C194.368 88.4683 194.628 88.4282 195.069 88.3882C195.509 88.3081 196.01 88.228 196.57 88.1479C197.892 87.9478 199.153 87.8477 200.354 87.8477C202.276 87.8477 204.058 88.1079 205.699 88.6284C206.46 88.9087 207.321 89.3491 208.282 89.9497C209.283 90.5103 210.104 91.0908 210.744 91.6914C211.345 92.252 211.905 92.8726 212.426 93.5532C214.147 92.5522 216.41 91.231 219.212 89.5894C222.656 87.5874 225.979 85.6855 229.182 83.8838C232.385 82.082 234.507 81.0811 235.548 80.8809C235.789 80.8408 235.989 80.8208 236.149 80.8208H236.329C236.489 80.8608 236.629 80.9409 236.75 81.061C236.83 81.1812 236.87 81.2812 236.87 81.3613C236.87 81.6416 236.589 81.9419 236.029 82.2622C235.789 82.3823 235.488 82.5225 235.128 82.6826L234.527 82.9229C233.606 83.3633 231.865 84.2842 229.302 85.6855C226.74 87.0869 223.957 88.6284 220.954 90.3101C217.991 91.9917 215.429 93.4932 213.267 94.8145C214.147 97.457 214.588 100.12 214.588 102.802C214.588 107.126 213.407 111.451 211.044 115.775C207.281 122.742 202.176 128.748 195.729 133.792C189.283 138.877 184.338 141.8 180.895 142.561C177.452 143.322 175.209 143.702 174.168 143.702C170.525 143.702 168.163 142 167.082 138.597ZM169.184 136.435C169.144 136.675 169.124 136.916 169.124 137.156C169.124 138.717 169.604 139.718 170.565 140.159C171.246 140.519 172.046 140.699 172.967 140.699C173.688 140.699 174.469 140.599 175.31 140.399C177.352 139.999 179.333 139.398 181.255 138.597C183.177 137.836 184.559 137.216 185.399 136.735C187.602 135.494 190.044 133.812 192.727 131.69C195.409 129.568 197.691 127.486 199.573 125.444C204.979 119.759 208.402 113.713 209.843 107.307C210.324 105.225 210.564 103.143 210.564 101.061C210.564 100.58 210.544 100.12 210.504 99.6792C210.464 98.7183 210.304 97.7573 210.023 96.7964C209.943 96.8364 209.903 96.8765 209.903 96.9165L204.979 99.5591L204.138 100.04C201.335 101.641 198.312 103.643 195.069 106.045C191.866 108.408 189.063 110.57 186.661 112.532C183.337 115.134 179.734 118.678 175.85 123.162C171.966 127.646 169.744 132.071 169.184 136.435Z" fill="black"/>
</svg>
