<svg width="25" height="28" viewBox="0 0 25 28" fill="none" xmlns="http://www.w3.org/2000/svg">
<path d="M24.116 20.188L22.94 28H0.512V26.74C1.66 26.74 2.514 26.67 3.074 26.53C3.662 26.362 4.054 26.012 4.25 25.48C4.474 24.948 4.586 24.136 4.586 23.044V5.53C4.586 4.466 4.474 3.654 4.25 3.094C4.054 2.534 3.662 2.156 3.074 1.96C2.514 1.764 1.66 1.666 0.512 1.666V0.406H22.562L22.814 7.294H21.47C21.274 5.894 20.966 4.844 20.546 4.144C20.154 3.416 19.496 2.926 18.572 2.674C17.676 2.422 16.36 2.296 14.624 2.296H8.45V12.964H13.364C14.652 12.964 15.632 12.852 16.304 12.628C16.976 12.404 17.438 11.984 17.69 11.368C17.942 10.752 18.068 9.884 18.068 8.764H19.412V18.508H18.068C18.068 17.36 17.942 16.506 17.69 15.946C17.438 15.386 16.976 15.022 16.304 14.854C15.632 14.686 14.652 14.602 13.364 14.602H8.45V26.152H13.868C15.492 26.152 16.794 26.082 17.774 25.942C18.782 25.774 19.566 25.48 20.126 25.06C20.714 24.64 21.19 24.038 21.554 23.254C21.946 22.47 22.352 21.448 22.772 20.188H24.116Z"/>
<style>
    path {
        fill: #000;
    }

    @media (prefers-color-scheme: dark) {
        path {
            fill: #fff;
        }
    }
</style>

</svg>
